<?xml version="1.0" encoding="UTF-8"?><svg id="Layer_2" xmlns="http://www.w3.org/2000/svg" viewBox="0 0 1467.28 1657.65"><defs><style>.cls-1{fill-rule:evenodd;}</style></defs><g id="Layer_1-2"><path class="cls-1" d="M0,1040.21v146.12c1.03,13.74,3.28,25.7,6.73,36.31,9.91,30.43,29.78,49.73,59.6,68.04l300.49,173.49-40.64-23.47c120.78-32.29,209.73-142.45,209.73-273.4,0-156.3-126.7-283-283-283-110.59,0-206.35,63.44-252.91,155.9M1467.28,865.22v-114.46l-21.65,7.49c-.06-.42-.14-.84-.23-1.25,4.99,32.73,4.86,66.47-.84,100.03l.04-.2,22.67,8.38ZM863.05,56.41l-72.2-41.68c-48.04-23.13-82.04-17.21-123.54,5.26l-300.49,173.49-54.7,31.58L57.21,372.23C13.16,402.27,1.29,434.67,0,481.85v282.58l19.48,21.48c-.53.33-1.05.67-1.55,1.03,39.8-24.65,83.76-43.22,130.58-54.42l-.23.04-5.91-120.96h221.08l-5.91,120.96c-.29-.07-.57-.12-.86-.17,47.11,11.2,91.33,29.88,131.35,54.67-.55-.4-1.12-.78-1.69-1.15l81.35-89.71,78.17,78.16,78.16,78.17-89.71,81.35c-.32-.52-.66-1.02-1-1.5,24.64,39.8,43.21,83.77,54.41,130.6l-.06-.3,120.96-5.91v221.08l-120.96-5.91.05-.25c-11.18,46.74-29.7,90.62-54.28,130.36.31-.42.6-.86.88-1.31l89.71,81.35-78.16,78.17-41.22,41.22,71.8,41.45c48.04,23.13,82.04,17.21,123.54-5.26l300.49-173.49,54.69-31.58,254.92-147.18c.17-.12.35-.23.51-.35l39.4-39.4c12.21-19.91,16.55-42.39,17.3-69.87v-154.08l-3.68,8.63-77.04-37.4.1-.15c-20.23,27.3-44.45,50.7-71.46,69.73.31-.19.63-.39.93-.61l35.79,77.8-72.52,29.16-72.52,29.16-28.03-80.92c.42-.06.84-.16,1.25-.25-32.85,4.99-66.71,4.87-100.4-.91.19.05.38.1.57.12l-29.71,80.32-71.9-30.66-71.9-30.66,37.4-77.04.15.1c-27.31-20.25-50.71-44.47-69.75-71.49.2.33.41.65.63.96l-77.8,35.79-29.16-72.52-29.16-72.52,80.92-28.03c.07.46.16.9.27,1.33-5-32.81-4.89-66.65.85-100.3-.03.13-.07.27-.09.39l-80.32-29.71,30.66-71.9,30.66-71.9,77.04,37.4c-.08.11-.15.23-.22.34,20.35-27.49,44.74-51.03,71.94-70.15-.44.26-.86.54-1.28.83l-35.79-77.8,72.52-29.16,72.52-29.16,28.03,80.92c-.43.06-.86.14-1.3.24,32.73-4.99,66.47-4.88,100.03.83l-.16-.04,29.71-80.32,71.9,30.66,71.9,30.66-37.4,77.04c-.16-.13-.34-.23-.5-.36,27.53,20.36,51.11,44.77,70.26,71.99-.25-.41-.51-.82-.78-1.21l76.85-35.35v-114.31c-1.03-13.75-3.27-25.7-6.73-36.31-9.91-30.43-29.78-49.73-59.6-68.04l-300.49-173.49-237.41-137.07ZM948.74,725.79c43.35-101.66,160.92-148.92,262.57-105.57,101.66,43.35,148.92,160.92,105.57,262.57-43.35,101.66-160.92,148.92-262.57,105.57-101.66-43.35-148.92-160.92-105.57-262.57Z"/></g></svg>